<?xml version="1.0" standalone="no"?>
<!DOCTYPE svg PUBLIC "-//W3C//DTD SVG 20010904//EN"
 "http://www.w3.org/TR/2001/REC-SVG-20010904/DTD/svg10.dtd">
<svg version="1.0" xmlns="http://www.w3.org/2000/svg"
 width="599.000000pt" height="601.000000pt" viewBox="0 0 599.000000 601.000000"
 preserveAspectRatio="xMidYMid meet">

<g transform="translate(0.000000,601.000000) scale(0.100000,-0.100000)"
fill="#000000" stroke="none">
<path d="M3117 3422 c-16 -3 -17 -32 -17 -383 l0 -379 65 0 65 0 0 385 0 386
-48 -3 c-26 -2 -55 -4 -65 -6z"/>
<path d="M1954 3390 c-70 -10 -136 -45 -184 -96 -42 -45 -80 -106 -80 -128 0
-8 -5 -16 -12 -18 -16 -6 -17 -217 0 -252 6 -14 17 -37 24 -51 18 -39 107
-134 142 -152 90 -47 201 -54 303 -21 78 25 136 74 177 151 22 41 26 60 26
137 l0 90 -161 0 -160 0 3 -42 3 -43 77 -3 c88 -3 104 -14 94 -65 -6 -34 -54
-92 -94 -114 -35 -21 -126 -16 -169 8 -43 24 -89 73 -101 109 -34 95 -42 153
-22 165 6 3 10 19 10 34 0 53 47 121 110 160 53 32 171 27 200 -8 3 -3 20 -17
39 -30 29 -20 35 -21 42 -9 5 9 23 30 40 49 l31 33 -28 23 c-83 66 -192 92
-310 73z"/>
<path d="M2562 3095 c-33 -18 -102 -87 -102 -101 0 -7 -5 -14 -11 -16 -6 -2
-11 -36 -12 -85 -1 -130 45 -200 157 -238 57 -20 95 -15 161 21 50 26 75 26
75 -1 0 -13 11 -15 68 -13 l67 3 3 145 c1 80 -1 177 -5 215 l-8 70 -57 3 c-47
2 -61 -1 -78 -18 l-20 -20 -40 25 c-33 21 -51 25 -107 24 -38 -1 -79 -7 -91
-14z m196 -99 c53 -27 67 -53 66 -119 -1 -58 -3 -63 -39 -94 -32 -27 -46 -33
-86 -33 -40 0 -53 5 -83 34 -33 30 -36 38 -36 87 0 36 6 64 19 83 34 51 106
70 159 42z"/>
<path d="M3723 3088 c-30 -61 -82 -177 -94 -205 -8 -18 -19 -33 -24 -33 -17 0
-35 22 -35 42 0 10 -4 18 -10 18 -5 0 -10 11 -10 25 0 14 -4 25 -10 25 -5 0
-10 9 -10 20 0 11 -4 20 -10 20 -5 0 -10 8 -11 18 0 9 -8 31 -18 47 -17 29
-21 30 -94 33 -73 3 -88 -2 -68 -23 18 -20 101 -183 101 -199 0 -9 5 -16 10
-16 6 0 10 -7 10 -15 0 -8 3 -15 8 -15 4 0 14 -15 21 -32 8 -18 29 -57 45 -86
l31 -53 48 3 c42 3 51 7 65 33 9 17 20 32 25 33 4 2 7 12 7 22 0 10 3 20 8 22
4 2 26 41 49 88 51 101 75 144 86 148 4 2 7 12 7 22 0 10 4 20 8 22 5 2 12 15
16 31 l6 27 -73 0 c-66 0 -75 -2 -84 -22z"/>
<path d="M3960 2883 l0 -223 65 0 c36 0 66 3 66 8 1 4 3 52 4 107 3 124 11
167 36 194 25 27 59 35 117 27 l47 -6 23 51 c12 28 20 55 16 60 -3 5 -33 9
-68 9 -57 0 -66 -3 -104 -36 -47 -39 -72 -39 -72 1 0 14 -3 25 -7 25 -5 1 -34
2 -65 3 l-58 2 0 -222z"/>
</g>
</svg>
